<svg version="1.1" id="Layer_1" xmlns="http://www.w3.org/2000/svg" xmlns:xlink="http://www.w3.org/1999/xlink" x="0px" y="0px" viewBox="0 0 16 16" style="enable-background:new 0 0 236.656 236.656;" xml:space="preserve" width="16" height="16"><g><path style="fill:#0071BC;" d="M13.93 5.928c2.213 1.949 1.865 6.511 1.683 9.111 -0.006 0.096 -0.047 0.17 -0.099 0.226 -0.015 0.096 -0.074 0.189 -0.177 0.217 -0.92 0.251 -2.11 0.053 -3.04 -0.115 -0.096 -0.015 -0.133 -0.09 -0.13 -0.164 -0.006 -0.012 -0.006 -0.028 -0.009 -0.04 -0.059 -0.056 -0.096 -0.143 -0.084 -0.257 0.096 -1.038 0.149 -2.076 0.124 -3.121 -0.012 -0.517 -0.034 -1.047 -0.093 -1.562 -0.13 -1.162 -1.289 -2.417 -2.377 -1.472 -1.531 1.326 -0.84 4.781 -0.722 6.554 0.009 0.121 -0.071 0.186 -0.161 0.201 -0.028 0.062 -0.077 0.118 -0.161 0.149 -0.499 0.18 -1.094 0.17 -1.621 0.18 -0.471 0.012 -0.989 0.053 -1.41 -0.183 -0.012 -0.006 -0.019 -0.019 -0.028 -0.031 -0.096 -0.043 -0.17 -0.13 -0.177 -0.263 -0.087 -3.223 -0.403 -6.765 0.251 -9.935 0.012 -0.059 0.043 -0.093 0.084 -0.112 0.022 -0.015 0.043 -0.031 0.071 -0.04 0.738 -0.208 1.729 0.04 2.482 0.124 0.239 0.025 0.474 0.031 0.601 0.26 0.047 0.087 0.068 0.198 0.074 0.316 1.181 -1.19 3.734 -1.085 4.918 -0.043"/><path style="fill:#0071BC;" d="M4.042 5.603c0.04 0.059 0.065 0.127 0.059 0.201 -0.313 3.251 -0.366 6.504 -0.161 9.764 0.012 0.211 -0.18 0.359 -0.369 0.372a36.847 36.847 0 0 1 -2.808 0.053c-0.208 -0.003 -0.363 -0.167 -0.369 -0.369 -0.112 -3.248 -0.394 -6.895 0.363 -10.08 0.022 -0.09 0.077 -0.136 0.143 -0.155 0.003 -0.009 0.009 -0.019 0.015 -0.028 -0.015 -0.065 0.012 -0.136 0.071 -0.17 0.332 -0.214 0.806 -0.099 1.19 -0.102 0.552 -0.006 1.106 -0.022 1.655 0.009 0.294 0.019 0.363 0.341 0.211 0.505"/><path style="fill:#0071BC;" d="M2.545 4.171c-0.115 0.009 -0.223 0 -0.325 -0.019 -1.413 0.232 -1.958 -1.921 -1.336 -3.006C1.244 0.521 1.96 0.003 2.703 0c0.765 0 1.385 0.669 1.63 1.345 0.483 1.326 -0.347 2.73 -1.788 2.826"/></g></svg>