<?xml version="1.0" encoding="UTF-8"?>
<svg xmlns="http://www.w3.org/2000/svg" xmlns:xlink="http://www.w3.org/1999/xlink" width="37px" height="29px" viewBox="0 0 37 29" version="1.1">
<g id="surface1">
<path style=" stroke:none;fill-rule:nonzero;fill:rgb(0%,0%,0%);fill-opacity:1;" d="M 33.546875 2.222656 C 32.800781 2.382812 31.902344 2.832031 30.988281 3.5 C 29.546875 4.550781 27.902344 6.160156 26.351562 8.039062 C 25.308594 9.300781 24.253906 10.722656 23.304688 12.152344 C 23.152344 12.382812 23.019531 12.570312 23.007812 12.570312 C 23 12.570312 22.804688 12.464844 22.574219 12.332031 C 20.175781 10.984375 17.585938 10.109375 15.175781 9.835938 C 13.113281 9.605469 11.410156 9.796875 10.175781 10.394531 C 9.335938 10.800781 8.710938 11.375 8.371094 12.042969 C 8.105469 12.566406 8.023438 12.972656 8.042969 13.648438 C 8.054688 14.070312 8.070312 14.179688 8.148438 14.484375 C 8.351562 15.257812 8.855469 16.066406 9.507812 16.65625 C 10.828125 17.851562 12.65625 18.707031 15.058594 19.246094 C 15.6875 19.386719 16.640625 19.558594 17.136719 19.617188 C 17.296875 19.640625 17.429688 19.664062 17.429688 19.675781 C 17.429688 19.707031 16.414062 20.6875 16.058594 21.003906 C 13.878906 22.925781 11.777344 24.03125 9.917969 24.238281 C 9.554688 24.277344 8.644531 24.261719 8.238281 24.207031 C 7.3125 24.085938 6.519531 23.804688 5.875 23.378906 C 5.203125 22.933594 4.84375 22.429688 4.78125 21.847656 C 4.757812 21.628906 4.808594 21.210938 4.890625 21 C 5.121094 20.378906 5.753906 19.949219 6.617188 19.835938 C 7.734375 19.683594 8.839844 19.910156 10.566406 20.648438 L 10.9375 20.808594 L 11.085938 20.765625 C 11.300781 20.699219 11.355469 20.652344 11.460938 20.429688 C 11.566406 20.210938 11.566406 20.183594 11.460938 19.894531 C 11.421875 19.78125 11.390625 19.757812 11.0625 19.582031 C 9.984375 18.988281 8.765625 18.59375 7.515625 18.433594 C 6.953125 18.355469 5.996094 18.339844 5.507812 18.398438 C 3.785156 18.601562 2.644531 19.410156 2.308594 20.675781 C 2.21875 21.003906 2.210938 21.683594 2.296875 22.011719 C 2.5 22.828125 3.003906 23.472656 3.925781 24.097656 C 4.882812 24.746094 6.144531 25.191406 7.5625 25.375 C 9.714844 25.65625 11.84375 25.363281 14.035156 24.488281 C 14.632812 24.25 15.726562 23.707031 16.316406 23.359375 C 17.710938 22.53125 19.179688 21.386719 20.453125 20.140625 L 20.796875 19.800781 L 21.867188 19.78125 C 22.960938 19.761719 23.332031 19.742188 23.890625 19.65625 C 24.261719 19.601562 24.320312 19.574219 24.464844 19.410156 C 24.570312 19.292969 24.574219 19.285156 24.554688 19.125 C 24.515625 18.75 24.511719 18.746094 24.386719 18.640625 C 24.183594 18.472656 24.199219 18.476562 23.484375 18.503906 C 22.476562 18.546875 21.96875 18.558594 21.96875 18.539062 C 21.96875 18.527344 22.101562 18.355469 22.261719 18.152344 C 22.839844 17.433594 23.628906 16.359375 24.234375 15.472656 L 24.457031 15.144531 L 24.710938 15.308594 C 25.308594 15.699219 26.492188 16.578125 26.984375 17.003906 L 27.121094 17.121094 L 27.03125 17.527344 C 26.824219 18.472656 26.753906 19.164062 26.777344 19.964844 C 26.820312 21.5625 27.28125 22.902344 28.164062 24.015625 C 28.386719 24.292969 28.910156 24.8125 29.253906 25.089844 C 29.589844 25.363281 30.148438 25.742188 30.394531 25.859375 C 30.996094 26.152344 31.292969 25.828125 31.4375 24.703125 C 31.507812 24.179688 31.511719 22.726562 31.441406 22.210938 C 31.214844 20.488281 30.621094 19.050781 29.53125 17.578125 C 29.410156 17.414062 29.3125 17.269531 29.3125 17.25 C 29.3125 17.210938 29.992188 15.382812 30.574219 13.871094 C 31.203125 12.230469 32.164062 9.808594 32.96875 7.835938 C 34.050781 5.167969 34.640625 3.652344 34.804688 3.101562 C 34.925781 2.703125 34.835938 2.363281 34.582031 2.234375 C 34.417969 2.152344 33.894531 2.144531 33.546875 2.222656 Z M 31.378906 5.316406 C 30.945312 6.128906 30.296875 7.589844 29.789062 8.886719 C 29.121094 10.59375 28.492188 12.414062 27.523438 15.457031 L 27.445312 15.695312 L 27.101562 15.429688 C 26.910156 15.285156 26.433594 14.9375 26.042969 14.65625 C 25.65625 14.378906 25.300781 14.117188 25.257812 14.082031 L 25.179688 14.019531 L 25.527344 13.449219 C 26.578125 11.726562 27.0625 10.957031 27.824219 9.792969 C 29.238281 7.632812 30.3125 6.203125 31.316406 5.152344 C 31.457031 5 31.582031 4.886719 31.585938 4.894531 C 31.589844 4.898438 31.5 5.085938 31.378906 5.316406 Z M 15.726562 11.195312 C 17.589844 11.445312 19.632812 12.191406 21.863281 13.4375 C 22.136719 13.589844 22.257812 13.667969 22.246094 13.699219 C 22.238281 13.71875 22.027344 14.023438 21.777344 14.375 C 20.4375 16.25 19.488281 17.457031 18.761719 18.222656 L 18.484375 18.511719 L 18.285156 18.492188 C 16.871094 18.359375 15.613281 18.140625 14.636719 17.863281 C 12.722656 17.316406 11.296875 16.480469 10.554688 15.480469 C 10.402344 15.265625 10.167969 14.789062 10.101562 14.527344 C 10.023438 14.257812 10.023438 13.53125 10.097656 13.289062 C 10.234375 12.84375 10.511719 12.4375 10.894531 12.125 C 11.578125 11.574219 12.472656 11.257812 13.6875 11.140625 C 14.136719 11.097656 15.203125 11.125 15.726562 11.195312 Z M 29.148438 19.285156 C 29.546875 19.890625 29.800781 20.523438 29.910156 21.179688 C 29.980469 21.617188 29.980469 22.484375 29.90625 22.929688 C 29.863281 23.207031 29.710938 23.789062 29.667969 23.863281 C 29.644531 23.894531 29.511719 23.765625 29.351562 23.558594 C 29.066406 23.183594 28.855469 22.667969 28.757812 22.101562 C 28.683594 21.664062 28.65625 20.816406 28.699219 20.289062 C 28.738281 19.855469 28.878906 18.945312 28.90625 18.945312 C 28.914062 18.945312 29.023438 19.097656 29.148438 19.285156 Z M 29.148438 19.285156 "/>
</g>
</svg>
